<svg id="e079aefe-78ee-4a75-8dbb-a2be8f8a1906" data-name="Layer 1" xmlns="http://www.w3.org/2000/svg" viewBox="0 0 500 500">
  <defs>
    <style>
      .f5706281-9001-4bf3-a6ca-4d8cb77b1771 {
        fill: #3f200d;
      }

      .ad6231cd-8484-4934-a69d-0c754a3a7992, .e28da752-0f96-4ea8-800c-4213c0d5214c {
        fill: beige;
      }

      .b14280c0-067f-4917-b1f9-b6ec83d5df19, .e28da752-0f96-4ea8-800c-4213c0d5214c {
        fill-rule: evenodd;
      }

      .b14280c0-067f-4917-b1f9-b6ec83d5df19 {
        fill: #fff;
      }
    </style>
  </defs>
  <circle class="f5706281-9001-4bf3-a6ca-4d8cb77b1771" cx="250" cy="250" r="250"/>
  <path class="e28da752-0f96-4ea8-800c-4213c0d5214c" d="M372.156,244.473c-41.845-29.815-81.377-37.51-95.509,19.054a16.947,16.947,0,0,0-3.559-.372H226.911a16.949,16.949,0,0,0-3.557.372c-14.129-56.564-53.669-48.869-95.51-19.054,9.908-62.094,65.981-117.965,122.076-118.129S362.139,181.72,372.156,244.473Z"/>
  <path class="e28da752-0f96-4ea8-800c-4213c0d5214c" d="M226.906,267.238h46.182c4.918,0,8.939,2.568,8.939,5.711h0c0,3.138-4.021,5.71-8.939,5.71H226.906c-4.916,0-8.937-2.572-8.937-5.71h0c0-3.143,4.021-5.711,8.937-5.711Z"/>
  <path class="e28da752-0f96-4ea8-800c-4213c0d5214c" d="M267.593,282.738c8.176,41.019,8.067,82.409.953,124.118H231.453c-7.114-41.709-7.224-83.1.952-124.118ZM253.485,303.99a4.854,4.854,0,1,1-.107-6.865,4.847,4.847,0,0,1,.107,6.865Zm-6.517-.917,5.393-5.57.87.845-5.391,5.567-.872-.842Zm4.487,81.365a4.854,4.854,0,1,1-6.087,3.17,4.85,4.85,0,0,1,6.087-3.17Zm2.1,6.236-7.4-2.324.368-1.157,7.393,2.324-.363,1.157Z"/>
  <path class="e28da752-0f96-4ea8-800c-4213c0d5214c" d="M233.434,410.938h33.13c3.528,0,6.414,2.57,6.414,5.712h0c0,3.14-2.886,5.707-6.414,5.707h-33.13c-3.527,0-6.412-2.567-6.412-5.707h0c0-3.142,2.885-5.712,6.412-5.712Z"/>
  <path class="e28da752-0f96-4ea8-800c-4213c0d5214c" d="M244.092,426.03h11.816c1.254,0,2.284,2.573,2.284,5.714h0c0,3.136-1.03,5.708-2.284,5.708H244.092c-1.258,0-2.286-2.572-2.286-5.708h0c0-3.141,1.028-5.714,2.286-5.714Z"/>
  <path class="b14280c0-067f-4917-b1f9-b6ec83d5df19" d="M132.366,236.631c9.527-54.342,66.241-107.445,120.168-107.59,41.663-.11,80.528,33.086,101.773,71.594-22.345-34.4-61.033-64.639-99.72-64.534-55.927.147-103.9,56.294-122.221,100.53Z"/>
  <polygon class="e28da752-0f96-4ea8-800c-4213c0d5214c" points="250.001 27.231 261.472 27.522 272.791 28.383 283.947 29.801 294.923 31.761 305.708 34.252 316.286 37.256 326.642 40.762 336.765 44.753 346.64 49.218 356.252 54.142 365.588 59.511 374.633 65.31 383.374 71.526 391.795 78.145 399.885 85.152 407.626 92.534 415.01 100.277 422.017 108.367 428.636 116.79 434.852 125.529 440.65 134.574 446.019 143.91 450.942 153.522 455.408 163.396 459.398 173.519 462.904 183.877 465.909 194.454 468.399 205.238 470.359 216.215 471.777 227.371 472.638 238.691 472.929 250.16 472.638 261.632 471.777 272.952 470.359 284.108 468.399 295.084 465.909 305.869 462.904 316.446 459.398 326.804 455.408 336.925 450.942 346.801 446.019 356.412 440.65 365.749 434.852 374.793 428.636 383.534 422.017 391.956 418.294 396.254 415.465 393.437 418.943 389.423 425.444 381.152 431.548 372.567 437.242 363.684 442.515 354.515 447.351 345.075 451.736 335.377 455.657 325.434 459.1 315.261 462.051 304.871 464.496 294.279 466.421 283.498 467.815 272.543 468.661 261.426 468.946 250.16 468.661 238.897 467.815 227.779 466.421 216.824 464.496 206.043 462.051 195.45 459.1 185.061 455.657 174.888 451.736 164.945 447.351 155.248 442.515 145.807 437.242 136.638 431.548 127.755 425.444 119.171 418.943 110.9 412.061 102.955 404.811 95.35 397.206 88.101 389.263 81.219 380.992 74.719 372.407 68.614 363.523 62.918 354.355 57.646 344.914 52.81 335.216 48.424 325.274 44.504 315.101 41.061 304.71 38.11 294.118 35.664 283.338 33.738 272.382 32.346 261.265 31.5 250.001 31.214 238.736 31.5 227.62 32.346 216.663 33.738 205.882 35.664 195.29 38.11 184.9 41.061 174.727 44.504 164.785 48.424 155.087 52.81 145.646 57.646 136.478 62.918 127.594 68.614 119.01 74.719 110.738 81.219 102.794 88.101 95.189 95.35 87.94 102.955 81.057 110.9 74.558 119.171 68.453 127.755 62.758 136.638 57.485 145.807 52.649 155.248 48.264 164.945 44.343 174.888 40.9 185.061 37.948 195.45 35.504 206.043 33.577 216.824 32.185 227.779 31.338 238.897 31.053 250.16 31.338 261.426 32.185 272.543 33.577 283.498 35.504 294.279 37.948 304.871 40.9 315.261 44.343 325.434 48.264 335.377 52.649 345.075 57.485 354.515 62.758 363.684 68.453 372.567 74.558 381.152 81.057 389.423 83.823 392.616 80.997 395.433 77.984 391.956 71.365 383.534 65.148 374.793 59.35 365.749 53.981 356.412 49.058 346.801 44.592 336.925 40.601 326.804 37.095 316.446 34.091 305.869 31.601 295.084 29.64 284.108 28.222 272.952 27.361 261.632 27.07 250.16 27.361 238.691 28.222 227.371 29.64 216.215 31.601 205.238 34.091 194.454 37.095 183.877 40.601 173.519 44.592 163.396 49.058 153.522 53.981 143.91 59.35 134.574 65.148 125.529 71.365 116.79 77.984 108.367 84.991 100.277 92.373 92.534 100.117 85.152 108.206 78.145 116.628 71.526 125.368 65.31 134.414 59.511 143.749 54.142 153.361 49.218 163.236 44.753 173.359 40.762 183.716 37.256 194.294 34.252 205.077 31.761 216.054 29.801 227.21 28.383 238.53 27.522 250.001 27.231 250.001 27.231"/>
  <path class="e28da752-0f96-4ea8-800c-4213c0d5214c" d="M250,15.161c129.764,0,235,105.234,235,235a234.058,234.058,0,0,1-58.1,154.668l-4.4-4.385A227.878,227.878,0,0,0,478.8,250.16c0-126.339-102.457-228.8-228.8-228.8S21.2,123.821,21.2,250.16A227.875,227.875,0,0,0,76.787,399.626l-4.407,4.39A234.069,234.069,0,0,1,15,250.16c0-129.765,105.235-235,235-235Z"/>
  <path class="ad6231cd-8484-4934-a69d-0c754a3a7992" d="M105.056,414.284l-6.164-5.818-3.946,3.655,4.886,4.611-2.03,1.879L92.916,414l-5.9,5.464-2.01-1.9,13.905-12.877,8.174,7.715-2.029,1.88Zm3.583,23.329L106.366,436l11.853-14.561,2.273,1.617-11.853,14.561Zm27.124,17.161-2.444-1.386.544-15.551-7.527,11.586-2.442-1.387c4.254-6.548,5.891-9.068,10.161-15.639l2.579,1.464-.473,15.153,7.319-11.265,2.442,1.386-10.159,15.639Zm27.132,12.4-10.867-4.369c3.236-7.031,4.479-9.735,7.723-16.786l10.867,4.369-1.129,2.454-8.242-3.315-2.194,4.771,6.353,2.554-1.13,2.454-6.352-2.555-2.142,4.655,8.243,3.314-1.13,2.454Zm28.952,5.655-4.376,2.1-6.443-1.532-2.768-3.8.875-3.217,2.769.659-.54,1.983,1.533,2.065,4.089.972,2.4-1.129.54-1.984-1.539-2.039-4.866-1.158-2.761-3.825,1.106-4.064,4.374-2.1,6.031,1.435,2.767,3.8-.8,2.952-2.769-.659.5-1.839-1.436-1.913L186.6,458.6l-2.24,1.039-.5,1.838,1.43,1.938,4.993,1.188,2.769,3.8-1.2,4.427Zm30.507-6.994-5.614-.857c-1.091,6.247-1.5,8.564-2.693,15.423l-2.82-.43c1.2-6.858,1.6-9.178,2.694-15.424l-5.641-.859.461-2.637,14.074,2.148-.461,2.636Zm39.459,13.624-3.559,3.147-2.055.058.068,2.1-2.829.079-.068-2.095-2.028.058-3.755-2.942c-.176-5.445-.216-6.7-.393-12.177l3.557-3.171,6.914-.2,3.754,2.966c.178,5.475.218,6.732.394,12.177Zm-2.869-1.168-.312-9.656-2.11-1.614-4.484.126-1.974,1.729.312,9.656,2.08,1.566.828-.024-.061-1.9,2.829-.08.061,1.9.828-.023,2-1.68Zm34.28-2.445-2.983,3.655-6.822,1.208-4.2-2.381c-1.2-5.927-1.676-8.271-3.032-14.961l2.807-.5,2.779,13.711,2.327,1.29,4.407-.781,1.661-2-2.779-13.71,2.808-.5c1.355,6.69,1.831,9.033,3.032,14.96Zm32.87-5.056-2.879.758-3.1-3.93-7.71,2.03-.448,4.864-2.88.758c.736-8.219.994-10.922,1.762-19.474l2.88-.757,12.374,15.751Zm-7.78-5.472-5-6.465-.657,7.954,5.655-1.489Zm33.419-5.336-10.743,4.626c-3.427-6.958-4.748-9.637-8.188-16.62l2.595-1.117,6.992,14.193,8.15-3.508,1.194,2.426Zm17.577-9.338-2.481,1.324c-4.064-6.652-5.629-9.214-9.706-15.89l2.482-1.325,9.7,15.891Zm14.508-29.064-4.437,3.326c4.235,4.937,5.806,6.77,10.457,12.191l-2.229,1.671-10.457-12.191-4.458,3.342-1.788-2.083L382.03,419.5l1.788,2.085Zm19.467-20.6,2.317,12.2,5.906,5.772-2.065,1.846-5.906-5.772-12.91-2.722,2.354-2.105,9.587,1.894-1.637-9,2.354-2.105Z"/>
  <path class="ad6231cd-8484-4934-a69d-0c754a3a7992" d="M114.685,148.861l5.663,6.659-12.625,20.134-.713-.445.609-.975a2.948,2.948,0,0,0,.554-2.733,6.93,6.93,0,0,0-2.721-2.494l-16.78-10.523q-2.605-1.631-3.7-1.3a3.49,3.49,0,0,0-1.926,1.639l-.61.972-.713-.447,7.387-11.782.715.447a10.738,10.738,0,0,0-1.326,2.774,2.918,2.918,0,0,0,.064,1.948,8.458,8.458,0,0,0,2.856,2.343l16.344,10.249c1.31.821,2.252,1.148,2.815.977s1.464-1.211,2.663-3.126l1.2-1.9a21.709,21.709,0,0,0,2-3.8,5.9,5.9,0,0,0,.143-3.378,13.969,13.969,0,0,0-2.409-4.687l.521-.545Zm20.822-21.715,3.816,7.194-16.162,17.278-.614-.576.743-.795a3.417,3.417,0,0,0,1.088-2.364c-.018-.786-.732-1.839-2.151-3.167l-14.568-13.627c-1.522-1.423-2.629-2.091-3.347-2.008a3.773,3.773,0,0,0-2.208,1.349l-.744.795-.616-.576,16.164-17.277,5.139,4.342-.608.65q-2.691-1.7-4.152-1.527c-.982.108-2.181.91-3.6,2.423l-5.75,6.146,8.857,8.286,4.6-4.916a6.436,6.436,0,0,0,1.842-3.1c.151-.916-.442-2.082-1.8-3.476l.569-.608,7.806,7.3-.569.607q-2.462-1.918-3.859-1.5a6.583,6.583,0,0,0-2.777,1.907l-4.6,4.917,7.387,6.909a5.575,5.575,0,0,0,2.356,1.6c.508.071,1.135-.306,1.876-1.1l3.551-3.8a10.467,10.467,0,0,0,2.711-4.39c.328-1.364-.007-3.437-1-6.244l.618-.658Zm32.545-14.837-9.8,7.1-.5-.682q2.439-1.962,1.441-3.342a9.411,9.411,0,0,0-2.594-2.024l-4.08-2.481L142.9,117.85,144.035,123a7.383,7.383,0,0,0,.959,2.6q.978,1.352,4-.525l.494.683-7.832,5.67-.494-.682a6.054,6.054,0,0,0,1.549-2.293c.2-.68.02-2.326-.575-4.945l-6.067-26.8.647-.467,23.621,14.418a13.651,13.651,0,0,0,3.952,1.806,4.538,4.538,0,0,0,3.269-.835l.5.681Zm-17.032-2.422L139.527,102.9l2.951,13.172,8.542-6.187Zm31.909-31.094-.776.36q-2.656-4.593-7.31-2.426l-3.938,1.828,9.88,21.277c.849,1.827,1.626,2.834,2.344,3.044a3.586,3.586,0,0,0,2.5-.362l.977-.453.356.762-11.817,5.489-.355-.763,1-.465a3.677,3.677,0,0,0,1.812-1.628c.349-.692.109-1.96-.745-3.8L166.976,80.38l-3.341,1.554a7.4,7.4,0,0,0-3.51,2.815c-.581,1.058-.514,2.564.221,4.534l-.776.358-2.7-6.682,22.722-10.552,3.341,6.386Zm42.265,12.432-12.8,2.935-.188-.821,1.06-.243c1.358-.311,2.15-.841,2.4-1.594a7.594,7.594,0,0,0-.205-3.617l-2.09-9.117-13.9,3.186,2.09,9.117a8.562,8.562,0,0,0,1.056,3.037,2.447,2.447,0,0,0,1.412.709,4.242,4.242,0,0,0,1.776-.011l1.083-.248.188.821L194.25,98.32l-.188-.821,1.072-.247c1.368-.313,2.175-.835,2.414-1.574a7.6,7.6,0,0,0-.233-3.633l-4.427-19.308a8.775,8.775,0,0,0-1.05-3.062,2.286,2.286,0,0,0-1.415-.72,4.229,4.229,0,0,0-1.771.022l-1.072.246-.189-.821,12.825-2.94.188.82-1.083.25a3.362,3.362,0,0,0-2.213,1.348q-.639.992.025,3.885l1.962,8.558,13.9-3.186-1.962-8.558a8.586,8.586,0,0,0-1.061-3.06,2.384,2.384,0,0,0-1.412-.709,4.207,4.207,0,0,0-1.775.01l-1.061.244-.188-.822,12.8-2.935.188.822-1.05.24a3.37,3.37,0,0,0-2.224,1.352q-.638.99.025,3.885L219.7,86.911c.432,1.885.948,3.039,1.567,3.483a3.3,3.3,0,0,0,2.687.251l1.05-.241.188.821ZM252.617,80.24l-1.976,7.9-23.572,2.026-.072-.84,1.085-.093a3.425,3.425,0,0,0,2.391-1.029c.512-.6.686-1.856.519-3.793l-1.708-19.874c-.178-2.076-.554-3.313-1.143-3.732a3.772,3.772,0,0,0-2.544-.475l-1.085.093-.071-.839,23.572-2.026.914,6.666-.887.077q-.862-3.064-2.063-3.913c-.8-.577-2.229-.785-4.3-.606l-8.385.72,1.038,12.083,6.707-.575a6.411,6.411,0,0,0,3.444-1.072c.726-.579,1.065-1.842.991-3.786l.827-.072.916,10.651-.828.07q-.546-3.067-1.868-3.693a6.589,6.589,0,0,0-3.34-.442l-6.7.576.864,10.077a5.53,5.53,0,0,0,.687,2.762c.325.395,1.042.532,2.127.439l5.178-.445a10.461,10.461,0,0,0,4.952-1.447c1.151-.793,2.295-2.559,3.432-5.313l.9-.077Zm32.927,10.774-8.149-.87L268.581,74.77c-.761-.045-1.38-.1-1.856-.15-.256-.028-.7-.087-1.335-.19l-.946,8.87c-.213,2.013-.059,3.312.446,3.886a3.349,3.349,0,0,0,2.257,1.017l1.2.128-.089.839-13.085-1.4.09-.837,1.165.123a2.919,2.919,0,0,0,2.665-.7,6.771,6.771,0,0,0,1.058-3.514l2.1-19.718c.215-2.026.072-3.313-.444-3.887a3.467,3.467,0,0,0-2.3-1.023l-1.165-.124.09-.837,11.117,1.186a33.117,33.117,0,0,1,6.52,1.225,8.026,8.026,0,0,1,4.034,3.021,6.92,6.92,0,0,1,1.318,4.966q-.656,6.147-8.352,7.008l5.375,9.428a14.732,14.732,0,0,0,3.549,4.581,9.781,9.781,0,0,0,3.643,1.507l-.089.839ZM266.9,60.311l-1.355,12.7,1.269.135a10.663,10.663,0,0,0,6.6-1.062,5.768,5.768,0,0,0,2.913-4.68,5.868,5.868,0,0,0-1.471-5.079,7.187,7.187,0,0,0-4.371-2.067,12.413,12.413,0,0,0-3.585.054Zm48.648,31.251q-6.231,6.582-14.231,4.576a13.858,13.858,0,0,1-9.457-7.044,15.972,15.972,0,0,1-1.23-11.691,16.475,16.475,0,0,1,7.22-10.353,14.726,14.726,0,0,1,11.95-1.878,14.333,14.333,0,0,1,5.963,3.173,3.735,3.735,0,0,0,1.206.822c.909.229,1.695-.31,2.347-1.607l.784.2-1.862,10.3-.68-.171q-.429-9.2-7.8-11.046c-3.634-.912-6.621-.214-9,2.086a20.2,20.2,0,0,0-5.142,9.766q-1.654,6.591.647,10.651a10.9,10.9,0,0,0,7.184,5.278,9.852,9.852,0,0,0,5.854-.1,19.471,19.471,0,0,0,5.7-3.557l.55.6Zm27.617,22.287-7.36-3.6-3.025-17.461c-.7-.3-1.261-.565-1.693-.777-.23-.113-.625-.319-1.187-.634l-3.923,8.012c-.891,1.818-1.189,3.093-.91,3.8a3.349,3.349,0,0,0,1.771,1.729l1.085.53-.372.757-11.817-5.787.37-.757,1.052.516a2.914,2.914,0,0,0,2.745.249,6.763,6.763,0,0,0,2.2-2.939l8.721-17.812c.895-1.828,1.2-3.088.911-3.8a3.459,3.459,0,0,0-1.816-1.748l-1.052-.516.372-.757,10.04,4.917a33.133,33.133,0,0,1,5.708,3.382,8.023,8.023,0,0,1,2.758,4.218,6.919,6.919,0,0,1-.46,5.118c-1.812,3.7-5.231,4.934-10.246,3.73l1.827,10.7a14.69,14.69,0,0,0,1.769,5.519,9.769,9.769,0,0,0,2.906,2.663l-.37.756Zm-7.021-35.226L330.524,90.09l1.146.562a10.672,10.672,0,0,0,6.565,1.259,5.772,5.772,0,0,0,4.339-3.4,5.859,5.859,0,0,0,.353-5.275,7.18,7.18,0,0,0-3.4-3.438,12.31,12.31,0,0,0-3.386-1.173Zm32.8,54.933-9.657-7.3.509-.672q2.588,1.758,3.615.4a9.4,9.4,0,0,0,1.179-3.072l1.179-4.627-9.479-7.165-4.587,2.593a7.378,7.378,0,0,0-2.208,1.678q-1,1.329,1.672,3.67l-.508.672-7.713-5.832.507-.671a6.06,6.06,0,0,0,2.647.811c.708-.008,2.23-.662,4.56-2l23.854-13.636.635.48-6.881,26.8a13.675,13.675,0,0,0-.571,4.308,4.531,4.531,0,0,0,1.755,2.882l-.508.673Zm-2.663-17,3.32-13.029-11.734,6.67,8.414,6.359Zm36.936,19.554-.54-.6a9.84,9.84,0,0,0,1.538-3.755c.179-1.2-.589-2.776-2.324-4.71L397.358,122l-8.974,8.055,3.739,4.163a3.583,3.583,0,0,0,2.711,1.531,6.513,6.513,0,0,0,3.09-1.358l.564.628-7.736,6.944-.564-.629a4.8,4.8,0,0,0,1.827-2.959,4.09,4.09,0,0,0-1.295-2.9l-3.738-4.163-7.178,6.442a8.673,8.673,0,0,0-2.124,2.348,2.464,2.464,0,0,0,.038,1.585,4.259,4.259,0,0,0,.892,1.607l.742.827-.627.563-8.8-9.8.627-.562.727.809c.928,1.038,1.777,1.49,2.539,1.34a7.461,7.461,0,0,0,3.081-1.948L391.66,121.28q2.171-1.945,2.281-3.085a3.376,3.376,0,0,0-1.071-2.437l-.727-.81.628-.562,15.247,16.987-4.806,4.739Zm17.835,27.049-.477-.709q4.124-3.342,1.254-7.6l-2.423-3.6L399.93,164.337c-1.67,1.125-2.543,2.049-2.638,2.79a3.6,3.6,0,0,0,.75,2.416l.6.893-.7.471-7.268-10.813.7-.47.614.913a3.687,3.687,0,0,0,1.892,1.535c.738.236,1.954-.2,3.635-1.328l19.47-13.09-2.058-3.06a7.388,7.388,0,0,0-3.329-3.023c-1.136-.408-2.612-.107-4.443.927l-.476-.71,6.177-3.715,13.977,20.79-5.786,4.3Z"/>
  <polygon class="ad6231cd-8484-4934-a69d-0c754a3a7992" points="150.746 319.146 149.607 320.136 142.043 320.136 140.904 319.146 142.043 318.156 149.607 318.156 150.746 319.146 150.746 319.146"/>
  <path class="ad6231cd-8484-4934-a69d-0c754a3a7992" d="M168.822,336.624h-3.977v11.69h-2v-11.69h-4v-2h9.971v2Zm-11.915,0h-6.124v3.884h4.855v2h-4.855v5.808h-2V334.626h8.122v2Zm-14.136,2.466v-1.047l-1.176-1.4h-3.66v3.884h3.66l1.176-1.437Zm2.634,9.224h-2.167l-2.857-5.789h-2.446v5.789h-2V334.626h6.612l2.222,2.577v2.745l-2.222,2.577,2.857,5.789Zm-12.587-2.259-2.558,2.259H125.4l-2.576-2.259V336.9l2.576-2.278h4.856l2.558,2.278v2.857h-2V337.8l-1.42-1.177h-3.156l-1.419,1.232V345.1l1.419,1.232H129.4l1.42-1.177v-1.68h2v2.577Z"/>
  <path class="ad6231cd-8484-4934-a69d-0c754a3a7992" d="M162.875,300.436v-7.228l-1.438-1.232h-4.258v9.673h4.258l1.438-1.213Zm1.98.933-2.559,2.279h-7.133v-13.67H162.3l2.559,2.278v9.113Zm-14.007,2.3h-2l-5.715-10.141v10.141h-2V289.978h2.111l5.6,9.86v-9.86h2v13.689Zm-14.361-.019h-2v-5.789h-5.7v5.789h-2v-13.67h2v5.882h5.7v-5.882h2v13.67Z"/>
  <path class="e28da752-0f96-4ea8-800c-4213c0d5214c" d="M421.5,193.157a6.123,6.123,0,1,1,6.123-6.123,6.124,6.124,0,0,1-6.123,6.123Z"/>
  <path class="e28da752-0f96-4ea8-800c-4213c0d5214c" d="M86.318,193.157a6.123,6.123,0,1,1,6.123-6.123,6.124,6.124,0,0,1-6.123,6.123Z"/>
  <circle class="ad6231cd-8484-4934-a69d-0c754a3a7992" cx="355.171" cy="319.146" r="29.168"/>
  <g>
    <path class="f5706281-9001-4bf3-a6ca-4d8cb77b1771" d="M355.13,291.647v4.2h14.652a27.371,27.371,0,0,0-14.611-4.2Z"/>
    <path class="f5706281-9001-4bf3-a6ca-4d8cb77b1771" d="M355.13,304.314h23.2a27.539,27.539,0,0,0-3.313-4.2H355.13Z"/>
    <path class="f5706281-9001-4bf3-a6ca-4d8cb77b1771" d="M355.13,312.78h26.8a27.3,27.3,0,0,0-1.362-4.2H355.13Z"/>
    <path class="f5706281-9001-4bf3-a6ca-4d8cb77b1771" d="M355.13,321.247h27.461q.079-1.041.08-2.1t-.08-2.1H355.13Z"/>
    <path class="f5706281-9001-4bf3-a6ca-4d8cb77b1771" d="M329.776,329.713h50.79a27.262,27.262,0,0,0,1.362-4.2H328.413A27.157,27.157,0,0,0,329.776,329.713Z"/>
    <path class="f5706281-9001-4bf3-a6ca-4d8cb77b1771" d="M335.323,338.18h39.695a27.588,27.588,0,0,0,3.313-4.2H332.01A27.588,27.588,0,0,0,335.323,338.18Z"/>
    <path class="f5706281-9001-4bf3-a6ca-4d8cb77b1771" d="M355.171,346.646a27.363,27.363,0,0,0,14.611-4.2H340.559A27.363,27.363,0,0,0,355.171,346.646Z"/>
    <g>
      <path class="f5706281-9001-4bf3-a6ca-4d8cb77b1771" d="M344.623,293.744q-.461.19-.913.4h.785Z"/>
      <path class="f5706281-9001-4bf3-a6ca-4d8cb77b1771" d="M345.116,293.544l.193.6h1.334l-1.08.775.408,1.261-1.069-.78-1.069.78.407-1.261-.863-.619a27.619,27.619,0,0,0-10.525,8.782h1.193l.407-1.261.407,1.261h1.334l-1.08.775.408,1.261-1.069-.781-1.069.781.407-1.261-.987-.708a27.6,27.6,0,0,0-1.573,2.461l.146.451h1.334l-1.08.775.407,1.261-1.069-.781-.945.691q.409-.923.884-1.809a27.282,27.282,0,0,0-3.026,9.54q.045-.372.1-.739h1.245l-1.08.774.407,1.261-.754-.55c.023-.25.051-.5.081-.745a27.8,27.8,0,0,0-.21,3.409q0,1.06.079,2.1h27.38v-29.6A27.409,27.409,0,0,0,345.116,293.544Zm2.862,3.578.407-1.261.407,1.261h1.335l-1.08.774.407,1.261-1.069-.78-1.069.78.408-1.261-1.081-.774Zm1.476,13.952-1.069-.78-1.069.78.408-1.261-1.081-.775h1.335l.407-1.261.407,1.261h1.335l-1.08.775Zm-3.483,2.979-1.069-.78-1.069.78.407-1.261-1.08-.775H344.5l.407-1.261.407,1.261h1.334l-1.08.775Zm-3.484-2.979-1.069-.78-1.068.78.407-1.261-1.08-.775h1.334l.407-1.261.408,1.261h1.334l-1.08.775Zm0-5.958-1.069-.781-1.068.781.407-1.261-1.08-.775h1.334l.407-1.261.408,1.261h1.334l-1.08.775Zm3.484,2.979-1.069-.781-1.069.781.407-1.261-1.08-.775H344.5l.407-1.261.407,1.261h1.334l-1.08.775Zm3.483-2.979-1.069-.781-1.069.781.408-1.261-1.081-.775h1.335l.407-1.261.407,1.261h1.335l-1.08.775ZM344.5,300.1l.407-1.261.407,1.261h1.334l-1.08.774.408,1.261-1.069-.78-1.069.78.407-1.261-1.08-.774Zm-3.484-2.979.407-1.261.408,1.261h1.334l-1.08.774.407,1.261-1.069-.78-1.068.78.407-1.261-1.08-.774Zm-3.483,2.979.407-1.261.407,1.261h1.335l-1.08.774.407,1.261-1.069-.78-1.069.78.407-1.261-1.08-.774Zm0,5.958.407-1.261.407,1.261h1.335l-1.08.775L339,308.1l-1.069-.781-1.069.781.407-1.261-1.08-.775ZM339,314.053l-1.069-.78-1.069.78.407-1.261-1.08-.775h1.335l.407-1.261.407,1.261h1.335l-1.08.775Zm-4.959-5.015.407-1.261.407,1.261h1.334l-1.08.775.408,1.261-1.069-.78-1.069.78.407-1.261-1.08-.775Zm-3.484,2.979.407-1.261.408,1.261h1.334l-1.08.775.407,1.261-1.069-.78-1.068.78.407-1.261-1.08-.775Zm1.476,8-1.069-.781-1.068.781.407-1.261-1.08-.775h1.334l.407-1.261.408,1.261h1.334l-1.08.775Zm2.415-3.76-1.069.78.407-1.261L332.71,315h1.335l.407-1.261.407,1.261h1.334l-1.08.774.408,1.261Zm4.552,3.76-1.069-.781-1.069.781.407-1.261-1.08-.775h1.335l.407-1.261.407,1.261h1.335l-1.08.775Zm2.414-3.76-1.068.78.407-1.261-1.08-.774h1.334l.407-1.261.408,1.261h1.334l-1.08.774.407,1.261Zm4.553,3.76-1.069-.781-1.069.781.407-1.261-1.08-.775H344.5l.407-1.261.407,1.261h1.334l-1.08.775Zm2.414-3.76-1.069.78.408-1.261L346.643,315h1.335l.407-1.261.407,1.261h1.335l-1.08.774.407,1.261Zm4.552,3.76-1.069-.781-1.068.781.407-1.261-1.08-.775h1.334l.407-1.261.408,1.261h1.334l-1.08.775Zm-.407-7.22.407,1.261-1.069-.78-1.068.78.407-1.261-1.08-.775h1.334l.407-1.261.408,1.261h1.334Zm0-5.958.407,1.261-1.069-.781-1.068.781.407-1.261-1.08-.775h1.334l.407-1.261.408,1.261h1.334Zm0-5.959.407,1.261-1.069-.78-1.068.78.407-1.261-1.08-.774h1.334l.407-1.261.408,1.261h1.334Zm0-5.958.407,1.261-1.069-.78-1.068.78.407-1.261-1.08-.775h1.334l.407-1.261.408,1.261h1.334Z"/>
      <path class="f5706281-9001-4bf3-a6ca-4d8cb77b1771" d="M344.84,293.655c.081-.033.162-.067.244-.1C345,293.588,344.921,293.622,344.84,293.655Z"/>
      <path class="f5706281-9001-4bf3-a6ca-4d8cb77b1771" d="M330.907,306.194c.105-.2.213-.392.323-.585C331.12,305.8,331.012,306,330.907,306.194Z"/>
      <path class="f5706281-9001-4bf3-a6ca-4d8cb77b1771" d="M345.115,293.543l-.031.013.032-.012Z"/>
      <path class="f5706281-9001-4bf3-a6ca-4d8cb77b1771" d="M344.624,293.743h0l.217-.089C344.768,293.685,344.7,293.713,344.624,293.743Z"/>
      <path class="f5706281-9001-4bf3-a6ca-4d8cb77b1771" d="M343.71,294.142c-.112.052-.223.1-.333.156h0l.333-.156Z"/>
      <path class="f5706281-9001-4bf3-a6ca-4d8cb77b1771" d="M332.851,303.08l-.048.066h0l.049-.067Z"/>
      <path class="f5706281-9001-4bf3-a6ca-4d8cb77b1771" d="M327.881,315.737h0Z"/>
      <polygon class="f5706281-9001-4bf3-a6ca-4d8cb77b1771" points="331.23 305.608 331.23 305.609 331.23 305.608 331.23 305.608"/>
      <path class="f5706281-9001-4bf3-a6ca-4d8cb77b1771" d="M330.907,306.2v0Z"/>
    </g>
  </g>
</svg>
